<?xml version="1.0" ?>
<!DOCTYPE svg  PUBLIC '-//W3C//DTD SVG 1.1//EN'  'http://www.w3.org/Graphics/SVG/1.1/DTD/svg11.dtd'>
<!-- Uploaded to: SVG Repo, www.svgrepo.com, Generator: SVG Repo Mixer Tools -->
<svg fill="#000000" width="800px" height="800px" viewBox="0 0 64 64" enable-background="new 0 0 64 64" version="1.1" xml:space="preserve" xmlns="http://www.w3.org/2000/svg" xmlns:xlink="http://www.w3.org/1999/xlink">
<g id="_x31_-smartphone"/>
<g id="_x32_-smartTV"/>
<g id="_x33_-telepon"/>
<g id="_x34_-computer"/>
<g id="_x35_-kalkulator"/>
<g id="_x36_-radio">
<g>
<path d="M53,24V3H11v21H7v37h50V24H53z M13,5h38v19H13V5z M55,59H9V26h46V59z"/>
<path d="M43,28h-8v8h8V28z M41,34h-4v-4h4V34z"/>
<path d="M53,28h-8v8h8V28z M51,34h-4v-4h4V34z"/>
<path d="M24,57c7.168,0,13-5.832,13-13s-5.832-13-13-13s-13,5.832-13,13S16.832,57,24,57z M24,33c6.065,0,11,4.935,11,11    s-4.935,11-11,11s-11-4.935-11-11S17.935,33,24,33z"/>
<path d="M29,52.5c0.827,0,1.5-0.673,1.5-1.5s-0.673-1.5-1.5-1.5s-1.5,0.673-1.5,1.5S28.173,52.5,29,52.5z M29,50.5    c0.276,0,0.5,0.224,0.5,0.5s-0.224,0.5-0.5,0.5s-0.5-0.224-0.5-0.5S28.724,50.5,29,50.5z"/>
<path d="M19,52.5c0.827,0,1.5-0.673,1.5-1.5s-0.673-1.5-1.5-1.5s-1.5,0.673-1.5,1.5S18.173,52.5,19,52.5z M19,50.5    c0.276,0,0.5,0.224,0.5,0.5s-0.224,0.5-0.5,0.5s-0.5-0.224-0.5-0.5S18.724,50.5,19,50.5z"/>
<path d="M29,38.5c0.827,0,1.5-0.673,1.5-1.5s-0.673-1.5-1.5-1.5s-1.5,0.673-1.5,1.5S28.173,38.5,29,38.5z M29,36.5    c0.276,0,0.5,0.224,0.5,0.5s-0.224,0.5-0.5,0.5s-0.5-0.224-0.5-0.5S28.724,36.5,29,36.5z"/>
<path d="M19,38.5c0.827,0,1.5-0.673,1.5-1.5s-0.673-1.5-1.5-1.5s-1.5,0.673-1.5,1.5S18.173,38.5,19,38.5z M19,36.5    c0.276,0,0.5,0.224,0.5,0.5s-0.224,0.5-0.5,0.5s-0.5-0.224-0.5-0.5S18.724,36.5,19,36.5z"/>
</g>
</g>
<g id="_x37_-hadset"/>
<g id="_x38_-usbflashdisk"/>
<g id="_x39_-camera"/>
<g id="_x31_0-printer"/>
<g id="_x31_1-powerbank"/>
<g id="_x31_2-kulkas"/>
<g id="_x31_3-modem"/>
<g id="_x31_4-tablet"/>
<g id="_x31_5-gamebot"/>
<g id="_x31_6-wasing_machine"/>
<g id="_x31_7-handdryer"/>
<g id="_x31_8-blender"/>
<g id="_x31_9-controller"/>
<g id="_x32_0-michrophone"/>
<g id="_x32_1-lamp"/>
</svg>